<svg width="24" height="24" viewBox="0 0 24 24" fill="none" xmlns="http://www.w3.org/2000/svg">
<g clip-path="url(#clip0)">
<path d="M18.05 11.3352C17.7821 10.9622 17.6689 10.4942 17.7497 10.0228L17.9109 9.08324L17.2283 8.41791C17.2179 8.40783 17.2086 8.39704 17.1985 8.38672C11.9752 12.744 11.3811 19.7287 11.438 23.1576C11.4401 23.2825 11.5361 23.3858 11.6605 23.3973C11.7849 23.4089 11.8981 23.325 11.9233 23.2026C13.3641 16.1854 16.089 12.8689 18.05 11.3352Z" fill="#3A4151"/>
<path d="M7.80743 6.6479L6.23121 7.00074L5.62827 8.49925C5.61732 8.52646 5.60497 8.55281 5.59277 8.57923C8.05285 12.0595 9.33409 19.1651 9.84626 22.7443C9.8583 22.8283 9.93312 22.8886 10.0177 22.8829C10.1023 22.8772 10.1682 22.8073 10.1689 22.7225C10.2312 15.0024 9.05021 9.85133 7.85825 6.63477C7.84129 6.63899 7.82463 6.64407 7.80743 6.6479Z" fill="#3A4151"/>
<path d="M18.5867 19.1493L18.3634 18.842C18.1826 18.5934 18.0749 18.3103 18.0402 18.0195C16.3208 18.4781 13.7344 19.6514 12.908 22.6192C12.8634 22.7795 12.9411 22.9486 13.0918 23.0191C13.2425 23.0896 13.4222 23.041 13.5166 22.904C14.4184 21.5963 16.0393 19.8693 18.4567 19.5187C18.458 19.5149 18.459 19.5111 18.4603 19.5073L18.5867 19.1493Z" fill="#3A4151"/>
<path d="M6.29204 16.1504C6.13481 16.3703 5.92567 16.5551 5.67408 16.686L5.3372 16.8612L5.29052 17.2381C5.27645 17.3516 5.25112 17.4614 5.2168 17.5672C6.66043 19.1978 7.72425 21.4378 8.36714 23.046C8.41022 23.1539 8.52789 23.2116 8.63969 23.1802C8.75141 23.1487 8.82154 23.0381 8.80207 22.9235C8.23283 19.5623 7.23718 17.4572 6.29204 16.1504Z" fill="#3A4151"/>
<path d="M19.5921 8.53576L19.292 10.2856C19.28 10.3551 19.3086 10.4255 19.3658 10.467C19.3981 10.4905 19.4364 10.5024 19.4748 10.5024C19.5044 10.5024 19.534 10.4954 19.5612 10.4811L21.1326 9.65494L22.704 10.4811C22.7311 10.4954 22.7608 10.5024 22.7903 10.5024C22.8288 10.5024 22.8671 10.4905 22.8994 10.467C22.9565 10.4255 22.9851 10.3551 22.9732 10.2856L22.673 8.53576L23.9444 7.2965C23.9949 7.24717 24.0132 7.17344 23.9913 7.10628C23.9695 7.03912 23.9114 6.99018 23.8415 6.98002L22.0846 6.72475L21.2989 5.13273C21.2676 5.0694 21.2031 5.0293 21.1325 5.0293C21.0619 5.0293 20.9974 5.0694 20.9662 5.13273L20.1804 6.72475L18.4235 6.98002C18.3536 6.99018 18.2955 7.03912 18.2737 7.10628C18.2519 7.17344 18.2701 7.24717 18.3206 7.2965L19.5921 8.53576Z" fill="#3A4151"/>
<path d="M7.4658 5.12236C7.53476 5.10695 7.58894 5.05371 7.60559 4.98507C7.62224 4.91642 7.59855 4.84434 7.54437 4.799L5.67504 3.23496L5.90372 0.808429C5.91037 0.738144 5.87644 0.670125 5.81639 0.633067C5.78653 0.614694 5.75275 0.605469 5.71906 0.605469C5.68481 0.605469 5.65065 0.614929 5.62055 0.633771L3.55537 1.92831L1.31819 0.96104C1.2945 0.950799 1.26949 0.945795 1.24462 0.945795C1.20139 0.945795 1.15862 0.960884 1.12446 0.98989C1.07059 1.03563 1.04745 1.10794 1.06465 1.17643L1.65766 3.5405L0.0463285 5.36918C-0.000346146 5.42218 -0.0129334 5.49708 0.0139612 5.56236C0.0408558 5.62772 0.102463 5.67213 0.172905 5.6769L2.60452 5.84351L3.84582 7.94105C3.87936 7.99773 3.94026 8.03213 4.00546 8.03213C4.01016 8.03213 4.01485 8.03198 4.01962 8.03159C4.09006 8.02627 4.15127 7.98139 4.1777 7.91588L5.0875 5.65478L7.4658 5.12236Z" fill="#3A4151"/>
<path d="M23.6301 18.4147C23.6199 18.3448 23.5709 18.2868 23.5037 18.265L22.3607 17.894L22.0183 16.742C21.9982 16.6743 21.9414 16.6239 21.8718 16.612C21.8613 16.6102 21.8509 16.6094 21.8405 16.6094C21.7817 16.6094 21.7256 16.6374 21.6904 16.6859L20.9843 17.6584L19.7829 17.6281C19.7814 17.6281 19.7798 17.628 19.7782 17.628C19.7094 17.628 19.6461 17.6662 19.6141 17.7272C19.5812 17.7898 19.5867 17.8655 19.6282 17.9226L20.3349 18.8946L19.9348 20.0279C19.9112 20.0945 19.9276 20.1686 19.9769 20.2192C20.0124 20.2556 20.0605 20.2752 20.1097 20.2752C20.1289 20.2752 20.1483 20.2722 20.1671 20.2661L21.31 19.8943L22.2641 20.625C22.2971 20.6503 22.3369 20.6633 22.3769 20.6633C22.4049 20.6633 22.433 20.6569 22.4591 20.6441C22.5224 20.6128 22.5626 20.5483 22.5625 20.4777L22.5621 19.2759L23.5519 18.5943C23.6099 18.5542 23.6402 18.4846 23.6301 18.4147Z" fill="#3A4151"/>
<path d="M4.95323 15.2992C5.01585 15.2666 5.05463 15.2013 5.05314 15.1306C5.05166 15.06 5.01022 14.9964 4.94619 14.9664L3.8575 14.4575L3.65962 13.2721C3.64798 13.2025 3.59786 13.1455 3.53023 13.1251C3.51256 13.1198 3.4945 13.1172 3.47668 13.1172C3.42609 13.1172 3.37668 13.1379 3.34111 13.1761L2.52067 14.0542L1.33214 13.8761C1.32292 13.8747 1.31377 13.8741 1.30462 13.8741C1.24442 13.8741 1.18727 13.9034 1.15233 13.9537C1.11198 14.0117 1.10815 14.0876 1.14232 14.1494L1.72391 15.2011L1.18727 16.2764C1.15577 16.3396 1.1628 16.4152 1.20549 16.4715C1.24098 16.5183 1.29587 16.5448 1.35325 16.5448C1.36498 16.5448 1.37679 16.5437 1.38851 16.5415L2.56844 16.3133L3.42531 17.156C3.46057 17.1907 3.50756 17.2092 3.55549 17.2092C3.57597 17.2092 3.59653 17.2059 3.61647 17.1989C3.68316 17.1757 3.73085 17.1166 3.73953 17.0465L3.88721 15.8539L4.95323 15.2992Z" fill="#3A4151"/>
<path d="M12.8391 5.24245L12.6949 4.89118L12.3237 4.81088C12.0465 4.75092 11.7962 4.6277 11.5867 4.45703C10.9885 6.04803 10.5697 8.50897 11.0101 12.2105C11.0338 12.4097 11.3244 12.4074 11.3434 12.2077C11.5062 10.4906 11.9259 7.71425 12.9974 5.5411C12.9362 5.44799 12.8827 5.34846 12.8391 5.24245Z" fill="#3A4151"/>
<path d="M13.3681 0.985461L13.4894 2.1811L12.5733 2.95885C12.5194 3.00459 12.4962 3.07683 12.5134 3.1454C12.5305 3.21388 12.5851 3.26673 12.6541 3.28167L13.8287 3.53576L14.2853 4.64743C14.3121 4.71279 14.3737 4.7572 14.4442 4.76204C14.4485 4.76236 14.4527 4.76251 14.4569 4.76251C14.5226 4.76251 14.5839 4.72764 14.6173 4.67034L15.2219 3.63177L16.4203 3.54107C16.4908 3.53576 16.5521 3.49088 16.5784 3.42537C16.6047 3.35985 16.5917 3.28503 16.5446 3.23241L15.7437 2.33645L16.0278 1.16872C16.0445 1.10008 16.0207 1.02791 15.9665 0.982569C15.9325 0.95411 15.8902 0.939256 15.8474 0.939256C15.8221 0.939256 15.7966 0.944416 15.7726 0.955049L14.6729 1.43986L13.6501 0.808848C13.6202 0.790397 13.5864 0.78125 13.5527 0.78125C13.5185 0.78125 13.4843 0.79071 13.4542 0.809552C13.3944 0.847001 13.361 0.915176 13.3681 0.985461Z" fill="#3A4151"/>
</g>
<defs>
<clipPath id="clip0">
<rect width="24" height="24" fill="white"/>
</clipPath>
</defs>
</svg>
