<svg height="512" viewBox="0 0 512 512" width="512" xmlns="http://www.w3.org/2000/svg"><g id="Out_line" data-name="Out line"><path d="m481.65723 262.34277-78.89063-78.89062a42.00654 42.00654 0 0 0 -5.10937-53.10938l-16-16a42.00834 42.00834 0 0 0 -53.10913-5.10913l-78.89087-78.89087a24.97109 24.97109 0 0 0 -35.31446 35.31446l2.01612 2.01611 5.69482 51.25439a179.34182 179.34182 0 0 1 -46.18921 141.62232l-10.20727-10.20728a8.003 8.003 0 0 0 -11.31446 0l-79.02954 79.02954-2.91089-2.91137a8.00062 8.00062 0 0 0 -11.31445-.001l-22.62789 22.62795a8.00062 8.00062 0 0 0 .001 11.31445l14.61029 14.61036c-.13867.32812-.27441.65625-.40723.9873h-20.66406a8.00039 8.00039 0 0 0 -8 8v32a8.00039 8.00039 0 0 0 8 8h20.66406c.13282.33105.26856.65918.40723.9873l-14.61035 14.61036a8.00062 8.00062 0 0 0 -.001 11.31445l22.62793 22.627a8.003 8.003 0 0 0 11.31445 0l14.61038-14.6104c.32812.13867.65625.27441.9873.40723v20.66406a8.00039 8.00039 0 0 0 8 8h32a8.00039 8.00039 0 0 0 8-8v-20.66406c.33105-.13282.65918-.26856.9873-.40723l14.61036 14.61035a8.0009 8.0009 0 0 0 11.31347 0l21.98023-21.97827a180.47451 180.47451 0 0 0 119.10864 44.43921 8.00235 8.00235 0 0 0 5.65723-2.34277l36-36a24.96707 24.96707 0 0 0 -34.82447-35.78023 24.97651 24.97651 0 0 0 -40-8 24.97728 24.97728 0 0 0 -40.49-7.5332l-1.40526 1.4052c-3.25854-2.50317-6.40967-5.15429-9.46313-7.90893l42.18286-42.18286a8.00122 8.00122 0 0 0 0-11.31446l-10.20723-10.20725a179.32569 179.32569 0 0 1 141.62232-46.18921l51.25439 5.69482 2.01611 2.01612a24.97109 24.97109 0 0 0 35.31446-35.31446zm-111.31446-136.68554 16 16a25.98048 25.98048 0 0 1 4.76075 30.13183l-50.89258-50.89258a25.98069 25.98069 0 0 1 30.13183 4.76075zm-213.08789 330.91113-12.957-12.958a8.00067 8.00067 0 0 0 -9.46875-1.376 47.84019 47.84019 0 0 1 -9.1123 3.7666 7.9994 7.9994 0 0 0 -5.71683 7.66704v18.332h-16v-18.332a7.9994 7.9994 0 0 0 -5.7168-7.667 47.84019 47.84019 0 0 1 -9.1123-3.7666 7.99942 7.99942 0 0 0 -9.46875 1.376l-12.957 12.958-11.31351-11.31352 12.957-12.957a7.99942 7.99942 0 0 0 1.37695-9.46875 47.84019 47.84019 0 0 1 -3.7666-9.1123 7.9994 7.9994 0 0 0 -7.66699-5.71683h-18.332v-16h18.332a7.9994 7.9994 0 0 0 7.667-5.7168 47.84019 47.84019 0 0 1 3.7666-9.1123 7.99942 7.99942 0 0 0 -1.37695-9.46875l-12.958-12.957 8.814-8.81348a7.952 7.952 0 0 0 2.09814 3.72559l25.47679 25.47674a32.01973 32.01973 0 1 0 45.04342 45.04349l25.47973 25.47974a7.95433 7.95433 0 0 0 3.72559 2.09765zm-53.9685-69.96753 22.12841 22.12842a16.00378 16.00378 0 0 1 -29.41479-8.72925 16.125 16.125 0 0 1 7.28638-13.39917zm121.8562 38.20874a7.9995 7.9995 0 0 0 10.25293-.89062l6.26172-6.26172a8.97 8.97 0 0 1 12.68554 12.68554l-4 4 11.31446 11.31446 20-20a8.97 8.97 0 0 1 12.68554 12.68554l-4 4 11.31446 11.31446 20-20a8.97 8.97 0 0 1 12.68554 12.68554l-33.625 33.626a164.66108 164.66108 0 0 1 -113.40234-47.96977l20.81738-20.81738a172.24737 172.24737 0 0 0 17.00977 13.62795zm-54.79981 1.5332-.00927.01026-2.3335 2.33349-84.68652-84.68652 76.68652-76.68652 84.68652 84.68652zm224.49707-152.29877a196.1899 196.1899 0 0 0 -154.70849 50.77294l-52.94824-52.94824a196.1899 196.1899 0 0 0 50.77294-154.70849l-3.48632-31.376 191.74609 191.74606zm75.50293 12.29882a8.979 8.979 0 0 1 -12.68554 0l-232-232a8.97 8.97 0 0 1 12.68554-12.68554l232 232a8.979 8.979 0 0 1 0 12.68549z"/><path d="m149.657 341.657-11.314-11.314-6.343 6.343-6.343-6.343-11.314 11.314 6.343 6.343-6.343 6.343 11.314 11.314 6.343-6.343 38.343 38.343 11.314-11.314-38.343-38.343z"/><path d="m157.657 298.343-11.314 11.314 30.343 30.343-6.343 6.343 11.314 11.314 6.343-6.343 14.343 14.343 11.314-11.314-14.343-14.343 6.343-6.343-11.314-11.314-6.343 6.343z"/></g></svg>