<?xml version="1.0" encoding="iso-8859-1"?>
<!-- Generator: Adobe Illustrator 19.0.0, SVG Export Plug-In . SVG Version: 6.00 Build 0)  -->
<svg version="1.1" id="Capa_1" xmlns="http://www.w3.org/2000/svg" xmlns:xlink="http://www.w3.org/1999/xlink" x="0px" y="0px"
	 viewBox="0 0 511.999 511.999" style="enable-background:new 0 0 511.999 511.999;" xml:space="preserve">
<g>
	<g>
		<path d="M503.072,331.617c-0.149-0.172-0.305-0.339-0.466-0.5c-8.099-8.099-19.057-12.268-30.117-11.927V170.713l32.965-13.099
			c2.659-1.057,4.738-3.201,5.711-5.893c0.973-2.691,0.747-5.669-0.622-8.183c0,0-39.685-72.817-39.689-72.823
			c-0.846-1.294-1.957-2.34-3.225-3.099c-0.013-0.008-0.026-0.016-0.039-0.023c-0.042-0.025-1.789-0.837-1.999-0.905L309.126,14.31
			c-2.059-0.689-4.289-0.689-6.349,0L146.383,66.662c-2.138,0.681-4.042,2.077-5.332,4.047c-0.006,0.009-0.417,0.694-0.42,0.701
			l-39.272,72.127c-1.368,2.514-1.594,5.492-0.621,8.183c0.973,2.691,3.052,4.836,5.711,5.893l32.965,13.099v133.303
			c-10.712,4.369-20.063,10.431-27.954,16.86c-1.716-3.038-4.974-5.089-8.712-5.089H10c-5.523,0-10,4.477-10,10v132.916
			c0,5.523,4.477,10,10,10h52.808c5.523,0,10-4.477,10-10v-9.644h29.938c1.71,0,3.32-0.43,4.727-1.186l2.54,0.61
			c12.355,2.968,24.645,6.76,36.527,11.27l73.336,27.841c18.551,7.043,38.017,10.613,57.857,10.613
			c32.255,0,63.497-9.449,90.348-27.327c48.825-32.51,127.568-85.139,128.357-85.667c0.07-0.047,0.14-0.095,0.21-0.144
			c8.369-5.906,13.87-15.127,15.092-25.298C512.964,349.6,509.805,339.337,503.072,331.617z M52.808,448.702H20V335.786h32.808
			V448.702z M92.747,429.058H72.808v-93.272h19.938V429.058z M487.584,143.193l-133.706,53.13l-33.183-54.765l137.206-52.88
			L487.584,143.193z M305.952,235.232c-5.523,0-10,4.478-10,10v88.224h-23.615c-16.287,0-30.341-10.154-38.739-16.222
			c-2.385-1.724-4.269-3.085-5.988-4.069c-25.784-14.772-48.648-17.909-68.195-14.786V178.66l99.087,39.374
			c1.206,0.479,2.456,0.708,3.69,0.708c3.412,0,6.698-1.752,8.556-4.818l35.206-58.102l35.204,58.101
			c1.859,3.067,5.144,4.819,8.556,4.819c1.234,0,2.484-0.229,3.69-0.708l99.087-39.374v146.244L393.2,352.149
			c-7.208-11.234-19.806-18.692-34.113-18.692h-43.135v-88.224C315.952,239.71,311.475,235.232,305.952,235.232z M305.952,34.337
			l127.013,42.518l-127.013,48.951L178.939,76.855L305.952,34.337z M124.319,143.193l29.683-54.515l137.207,52.88l-33.184,54.765
			L124.319,143.193z M491.885,357.384c-0.551,4.59-2.92,8.591-6.675,11.278c-3.488,2.331-80.276,53.65-128.211,85.568
			c-23.556,15.685-50.964,23.975-79.263,23.975c-17.406,0-34.484-3.133-50.758-9.311l-73.337-27.841
			c-12.672-4.811-25.778-8.855-38.954-12.02l-1.939-0.466v-81.602c21.936-23.33,57.302-43.73,104.921-16.448
			c0.804,0.461,2.539,1.715,4.217,2.927c9.679,6.993,27.696,20.011,50.452,20.011h86.75c11.307,0,20.506,9.205,20.506,20.521
			c0,11.314-9.199,20.52-20.506,20.52H208.045c-5.523,0-10,4.478-10,10s4.477,10,10,10h151.041c22.335,0,40.506-18.177,40.506-40.52
			c0-0.912-0.031-1.816-0.09-2.713l66.988-30.783c7.507-2.801,15.968-1.032,21.725,4.535
			C491.126,348.49,492.428,352.869,491.885,357.384z"/>
	</g>
</g>
<g>
	<g>
		<path d="M177.571,402.54c-0.13-0.64-0.32-1.27-0.57-1.87c-0.25-0.601-0.56-1.18-0.92-1.72c-0.37-0.551-0.79-1.061-1.25-1.521
			c-0.461-0.46-0.97-0.88-1.52-1.25c-0.54-0.36-1.12-0.67-1.72-0.92c-0.61-0.25-1.24-0.44-1.87-0.57c-1.29-0.26-2.621-0.26-3.91,0
			c-0.64,0.13-1.27,0.32-1.87,0.57c-0.61,0.25-1.19,0.56-1.73,0.92c-0.55,0.37-1.06,0.79-1.52,1.25c-0.46,0.46-0.88,0.97-1.24,1.521
			c-0.36,0.54-0.67,1.119-0.92,1.72c-0.25,0.599-0.44,1.229-0.57,1.87c-0.13,0.65-0.2,1.3-0.2,1.96c0,0.649,0.07,1.309,0.2,1.95
			c0.13,0.64,0.32,1.269,0.57,1.869c0.25,0.6,0.56,1.19,0.92,1.73c0.36,0.55,0.78,1.06,1.24,1.52c0.46,0.46,0.97,0.881,1.52,1.24
			c0.54,0.36,1.12,0.67,1.73,0.92c0.6,0.25,1.23,0.44,1.87,0.57s1.3,0.2,1.95,0.2s1.31-0.07,1.96-0.2c0.63-0.13,1.26-0.32,1.87-0.57
			c0.6-0.25,1.18-0.56,1.72-0.92c0.55-0.359,1.06-0.78,1.52-1.24c0.46-0.46,0.88-0.97,1.25-1.52c0.36-0.54,0.67-1.129,0.92-1.73
			c0.25-0.599,0.44-1.229,0.57-1.869s0.19-1.301,0.19-1.95C177.761,403.84,177.701,403.19,177.571,402.54z"/>
	</g>
</g>
<g>
</g>
<g>
</g>
<g>
</g>
<g>
</g>
<g>
</g>
<g>
</g>
<g>
</g>
<g>
</g>
<g>
</g>
<g>
</g>
<g>
</g>
<g>
</g>
<g>
</g>
<g>
</g>
<g>
</g>
</svg>
